<?xml version="1.0" encoding="utf-8"?>
<!-- Generator: Adobe Illustrator 23.0.0, SVG Export Plug-In . SVG Version: 6.00 Build 0)  -->
<svg version="1.1" id="_x37_e38527c-c439-4ac8-ab59-5870f5db8019"
	 xmlns="http://www.w3.org/2000/svg" xmlns:xlink="http://www.w3.org/1999/xlink" x="0px" y="0px" viewBox="0 0 461 435.3"
	 style="enable-background:new 0 0 461 435.3;" xml:space="preserve">
<style type="text/css">
	.st0{opacity:0.5;}
	.st1{fill:url(#SVGID_1_);}
	.st2{fill:#3F93F7;}
	.st3{fill:url(#SVGID_2_);}
	.st4{fill:url(#SVGID_3_);}
	.st5{fill:url(#SVGID_4_);}
	.st6{fill:url(#SVGID_5_);}
	.st7{fill:url(#SVGID_6_);}
	.st8{opacity:0.5;fill:#3F93F7;enable-background:new    ;}
	.st9{opacity:0.3;fill:#3F93F7;enable-background:new    ;}
	.st10{fill:url(#SVGID_7_);}
	.st11{opacity:0.2;fill:none;stroke:#535461;stroke-width:3;stroke-miterlimit:10;enable-background:new    ;}
</style>
<title>email capture</title>
<g class="st0">
	
		<linearGradient id="SVGID_1_" gradientUnits="userSpaceOnUse" x1="245.8464" y1="405.79" x2="245.8464" y2="290.39" gradientTransform="matrix(1 0 0 1 -135 -227.39)">
		<stop  offset="0" style="stop-color:#808080;stop-opacity:0.25"/>
		<stop  offset="0.54" style="stop-color:#808080;stop-opacity:0.12"/>
		<stop  offset="1" style="stop-color:#808080;stop-opacity:0.1"/>
	</linearGradient>
	<path class="st1" d="M131,149.4c25.3,0,37-13.6,37-31.8c0-31.8-25.6-54.6-57.4-54.6c-31.9,0.4-57.4,26.6-56.9,58.5
		c0.4,31.3,25.7,56.5,56.9,56.9c11.7-0.1,23.1-3.8,32.7-10.7c1-0.7,1.6-1.7,1.8-2.9c0.2-1-0.1-2-0.9-2.7c-1.5-1.3-3.8-1.1-5.1,0.4
		c-0.1,0.1-0.1,0.1-0.2,0.2c-2.1,2.8-8.4,7.4-26.9,7.9c-28.1,0.6-51.6-21.7-51.7-49.8C60.2,92.9,83.1,71,110.6,70.7
		s49.7,19.1,49.7,46.3c0,17.3-12,25.3-26.5,25c-4.6,0.3-5.5-1.5-4.9-8c0.5-5.3,5.6-27.5,7.4-35.3c0.6-2.3-0.9-4.6-3.2-5.2
		c-0.4-0.1-0.8-0.1-1.2-0.1h-0.3c-2,0.2-3.5,1.8-3.7,3.8c-0.2,1.2-0.2,2.5-0.3,3.8c-2.8-5.5-9.3-9.9-17-10.2
		c-16.3,0.3-30.5,15.1-31.2,36.7c0,14.5,7.7,22.8,21,22.8c9.3,0,16-5.5,19.8-10.8C120.2,139.6,119.9,148.8,131,149.4z M101.7,143
		c-8.3,0-13.3-6.2-13.3-16c0-17,11.4-27.8,22.2-27.8c9.6,0,13.3,6.5,13.6,15.1C124.2,128.2,115.2,143,101.7,143L101.7,143z"/>
</g>
<path class="st2" d="M130.1,148.2c24.2,0,35.4-13,35.4-30.4c0-30.4-24.5-52.2-54.8-52.2c-30.5,0-55.1,24.7-55.1,55.1
	c0,30.5,24.7,55.1,55.1,55.1c11.2-0.1,22.1-3.7,31.2-10.2c0.9-0.6,1.5-1.6,1.7-2.7c0.2-0.9-0.1-1.9-0.8-2.5c-1.5-1.2-3.6-1-4.9,0.4
	c0,0.1-0.1,0.1-0.1,0.2c-2,2.6-8,7.1-25.7,7.5c-26.8,0.6-49.3-20.8-49.4-47.6C62.6,94.3,84.5,73.3,110.8,73s47.5,18.3,47.5,44.2
	c0,16.5-11.5,24.2-25.4,23.9c-4.4,0.3-5.3-1.5-4.7-7.7c0.5-5.1,5.3-26.3,7.1-33.7c0.5-2.2-0.8-4.4-3-4.9c-0.4-0.1-0.7-0.1-1.1-0.1
	h-0.3c-1.9,0.2-3.4,1.7-3.6,3.6c-0.2,1.2-0.2,2.4-0.3,3.6c-2.7-5.3-8.8-9.4-16.2-9.7c-15.6,0.3-29.2,14.5-29.8,35.1
	c0,13.9,7.4,21.8,20,21.8c8.8,0,15.3-5.3,18.9-10.3C119.8,138.7,119.5,147.6,130.1,148.2z M102.1,142c-8,0-12.7-5.9-12.7-15.3
	c0-16.2,10.9-26.5,21.2-26.5c9.1,0,12.7,6.2,13,14.5C123.6,127.8,115,142,102.1,142L102.1,142z"/>
<g class="st0">
	
		<linearGradient id="SVGID_2_" gradientUnits="userSpaceOnUse" x1="355.2" y1="295.19" x2="355.2" y2="227.39" gradientTransform="matrix(1 0 0 1 -135 -227.39)">
		<stop  offset="0" style="stop-color:#808080;stop-opacity:0.25"/>
		<stop  offset="0.54" style="stop-color:#808080;stop-opacity:0.12"/>
		<stop  offset="1" style="stop-color:#808080;stop-opacity:0.1"/>
	</linearGradient>
	<path class="st3" d="M232.3,50.8c14.9,0,21.7-8,21.7-18.7C254,13.4,239,0,220.3,0s-33.9,15.2-33.9,33.9s15.2,33.9,33.9,33.9
		c6.9-0.1,13.6-2.3,19.2-6.3c0.5-0.4,0.9-1,1-1.7c0.1-0.6-0.1-1.2-0.5-1.6c-0.9-0.8-2.2-0.7-3,0.2l-0.1,0.1
		c-1.2,1.6-4.9,4.4-15.8,4.6c-16.3,0.4-29.9-12.4-30.3-28.7c0-0.2,0-0.3,0-0.5c0-16.4,13.4-29.3,29.5-29.4s29.2,11.2,29.2,27.2
		c0,10.1-7.1,14.9-15.6,14.7c-2.7,0.2-3.3-0.9-2.9-4.7c0.3-3.1,3.3-16.1,4.3-20.7c0.3-1.4-0.5-2.7-1.9-3c-0.2-0.1-0.5-0.1-0.7-0.1
		h-0.2c-1.2,0.1-2.1,1-2.2,2.2c-0.1,0.7-0.1,1.5-0.2,2.2c-2-3.6-5.8-5.9-10-6c-9.6,0.2-17.9,8.9-18.3,21.6c0,8.5,4.5,13.4,12.3,13.4
		c4.7-0.1,9-2.5,11.6-6.3C225.8,44.9,225.7,50.4,232.3,50.8z M215,47c-4.9,0-7.8-3.6-7.8-9.4c0-10,6.7-16.3,13-16.3
		c5.6,0,7.8,3.8,8,8.9C228.3,38.3,223,47,215,47z"/>
</g>
<path class="st2" d="M231.7,49.9c14.1,0,20.6-7.6,20.6-17.7c0-17.7-14.3-30.4-32-30.4c-17.8,0-32.2,14.4-32.2,32.2
	s14.4,32.2,32.2,32.2c6.5-0.1,12.9-2.2,18.2-6c0.5-0.4,0.9-0.9,1-1.6c0.1-0.5-0.1-1.1-0.5-1.5c-0.8-0.7-2.1-0.6-2.8,0.2
	c0,0-0.1,0.1-0.1,0.2c-1.2,1.5-4.7,4.1-15,4.4c-15.5,0.4-28.3-11.7-28.8-27.2c0-0.2,0-0.4,0-0.6c0-15.5,12.7-27.8,28-28
	S248,16.8,248,32c0,9.6-6.7,14.1-14.8,13.9c-2.6,0.2-3.1-0.9-2.8-4.5c0.3-3,3.1-15.3,4.1-19.6c0.3-1.3-0.4-2.6-1.7-2.9
	c-0.2-0.1-0.5-0.1-0.7-0.1H232c-1.1,0.1-2,1-2.1,2.1c-0.1,0.7-0.1,1.4-0.2,2.1c-1.9-3.5-5.5-5.6-9.5-5.7c-9.1,0.2-17,8.4-17.4,20.5
	c0,8.1,4.3,12.7,11.7,12.7c4.4-0.1,8.5-2.3,11-6C225.6,44.4,225.5,49.6,231.7,49.9z M215.3,46.3c-4.6,0-7.4-3.4-7.4-8.9
	c0-9.5,6.4-15.5,12.4-15.5c5.3,0,7.4,3.6,7.6,8.4C227.9,38,222.9,46.3,215.3,46.3L215.3,46.3z"/>
<g class="st0">
	
		<linearGradient id="SVGID_3_" gradientUnits="userSpaceOnUse" x1="461.4978" y1="367.39" x2="461.4978" y2="297.69" gradientTransform="matrix(1 0 0 1 -135 -227.39)">
		<stop  offset="0" style="stop-color:#808080;stop-opacity:0.25"/>
		<stop  offset="0.54" style="stop-color:#808080;stop-opacity:0.12"/>
		<stop  offset="1" style="stop-color:#808080;stop-opacity:0.1"/>
	</linearGradient>
	<path class="st4" d="M338.6,122.5c15.3,0,22.4-8.2,22.4-19.2c0-19.2-15.5-33-34.7-33c-19.2,0.3-34.6,16.2-34.3,35.4
		c0.3,18.8,15.5,33.9,34.3,34.3c7.1-0.1,14-2.3,19.7-6.5c0.6-0.4,1-1,1.1-1.7c0.1-0.6-0.1-1.2-0.5-1.6c-0.9-0.8-2.3-0.7-3.1,0.3
		l-0.1,0.1c-1.3,1.7-5.1,4.5-16.3,4.7c-16.8,0.5-30.7-12.8-31.2-29.6c0-0.2,0-0.3,0-0.5c-0.1-16.8,13.8-30.1,30.4-30.3
		s30,11.6,30,28c0,10.4-7.3,15.3-16,15.1c-2.8,0.2-3.4-0.9-3-4.9c0.3-3.2,3.4-16.6,4.5-21.3c0.3-1.4-0.5-2.8-1.9-3.1
		c-0.2-0.1-0.5-0.1-0.7-0.1H339c-1.2,0.1-2.1,1.1-2.3,2.3c-0.1,0.8-0.2,1.5-0.2,2.3c-2.1-3.7-6-6.1-10.3-6.1
		c-9.9,0.2-18.5,9.1-18.8,22.2c0,8.8,4.7,13.8,12.7,13.8c4.8-0.1,9.2-2.5,11.9-6.5C332.1,116.6,331.9,122.2,338.6,122.5z
		 M320.9,118.6c-5,0-8-3.7-8-9.7c0-10.3,6.9-16.8,13.4-16.8c5.8,0,8,3.9,8.2,9.1C334.5,109.7,329.1,118.6,320.9,118.6L320.9,118.6z"
		/>
</g>
<path class="st2" d="M337.7,121.2c14.1,0,20.6-7.6,20.6-17.7c0-17.7-14.3-30.4-32-30.4c-17.8,0-32.2,14.4-32.2,32.2
	c0,17.8,14.4,32.2,32.2,32.2c6.5-0.1,12.9-2.2,18.2-6c0.5-0.4,0.9-0.9,1-1.6c0.1-0.5-0.1-1.1-0.5-1.5c-0.8-0.7-2.1-0.6-2.8,0.2
	c0,0-0.1,0.1-0.1,0.2c-1.2,1.5-4.7,4.1-15,4.4c-15.5,0.4-28.3-11.7-28.8-27.2c0-0.2,0-0.4,0-0.6c0-15.5,12.7-27.8,28-28
	S354,88.2,354,103.3c0,9.6-6.7,14.1-14.8,13.9c-2.6,0.2-3.1-0.9-2.8-4.5c0.3-3,3.1-15.3,4.1-19.6c0.3-1.3-0.4-2.6-1.7-2.9
	c-0.2-0.1-0.5-0.1-0.7-0.1H338c-1.1,0.1-2,1-2.1,2.1c-0.1,0.7-0.1,1.4-0.2,2.1c-1.9-3.5-5.5-5.6-9.5-5.7c-9.1,0.2-17,8.4-17.4,20.5
	c0,8.1,4.3,12.7,11.7,12.7c4.4-0.1,8.5-2.3,11-6C331.6,115.7,331.5,120.9,337.7,121.2z M321.3,117.6c-4.6,0-7.4-3.4-7.4-8.9
	c0-9.5,6.4-15.5,12.4-15.5c5.3,0,7.4,3.6,7.6,8.4C333.9,109.3,328.9,117.6,321.3,117.6L321.3,117.6z"/>
<g class="st0">
	
		<linearGradient id="SVGID_4_" gradientUnits="userSpaceOnUse" x1="366.2" y1="470.04" x2="366.2" y2="403.64" gradientTransform="matrix(1 0 0 1 -135 -227.39)">
		<stop  offset="0" style="stop-color:#808080;stop-opacity:0.25"/>
		<stop  offset="0.54" style="stop-color:#808080;stop-opacity:0.12"/>
		<stop  offset="1" style="stop-color:#808080;stop-opacity:0.1"/>
	</linearGradient>
	<path class="st5" d="M243,225.9c14.6,0,21.3-7.8,21.3-18.3c0-18.3-14.8-31.5-33-31.5c-18.4,0-33.2,14.9-33.2,33.2
		c0,18.3,14.9,33.2,33.2,33.2c6.8-0.1,13.3-2.2,18.8-6.2c0.5-0.4,0.9-1,1-1.6s-0.1-1.1-0.5-1.5c-0.9-0.7-2.2-0.6-2.9,0.3
		c0,0,0,0-0.1,0.1c-1.2,1.6-4.8,4.3-15.5,4.5c-16,0.4-29.3-12.2-29.7-28.2c0-0.1,0-0.3,0-0.4c0-16,13.1-28.7,29-28.9
		s28.6,11,28.6,26.7c0,10-6.9,14.6-15.3,14.4c-2.7,0.2-3.2-0.9-2.8-4.6c0.2-3.1,3.2-15.9,4.2-20.3c0.3-1.3-0.5-2.7-1.8-3
		c-0.2-0.1-0.4-0.1-0.7-0.1h-0.2c-1.1,0.1-2,1-2.2,2.2c-0.1,0.7-0.1,1.4-0.2,2.2c-2-3.6-5.7-5.8-9.8-5.9c-9.4,0.2-17.6,8.7-18,21.1
		c0,8.4,4.4,13.1,12.1,13.1c4.6-0.1,8.8-2.4,11.4-6.2C236.8,220.3,236.6,225.6,243,225.9z M226.1,222.2c-4.8,0-7.6-3.5-7.6-9.2
		c0-9.8,6.6-16,12.8-16c5.5,0,7.6,3.7,7.8,8.7C239.1,213.7,233.9,222.2,226.1,222.2z"/>
</g>
<path class="st2" d="M242.6,225.4c14.1,0,20.6-7.6,20.6-17.7c0-17.7-14.3-30.4-32-30.4c-17.8,0-32.2,14.4-32.2,32.2
	s14.4,32.2,32.2,32.2c6.5-0.1,12.9-2.2,18.2-6c0.5-0.4,0.9-0.9,1-1.6c0.1-0.5-0.1-1.1-0.5-1.5c-0.8-0.7-2.1-0.6-2.8,0.2
	c0,0-0.1,0.1-0.1,0.2c-1.2,1.5-4.7,4.1-15,4.4c-15.5,0.4-28.3-11.7-28.8-27.2c0-0.2,0-0.4,0-0.6c0-15.5,12.7-27.8,28-28
	s27.7,10.7,27.7,25.9c0,9.6-6.7,14.1-14.8,13.9c-2.6,0.2-3.1-0.9-2.8-4.5c0.3-3,3.1-15.3,4.1-19.6c0.3-1.3-0.4-2.6-1.7-2.9
	c-0.2-0.1-0.5-0.1-0.7-0.1l0,0c-1.1,0.1-2,1-2.1,2.1c-0.1,0.7-0.1,1.4-0.2,2.1c-1.9-3.5-5.5-5.6-9.5-5.7c-9.1,0.2-17,8.4-17.4,20.5
	c0,8.1,4.3,12.7,11.7,12.7c4.4-0.1,8.5-2.3,11-6C236.6,219.9,236.4,225.1,242.6,225.4z M226.3,221.8c-4.6,0-7.4-3.4-7.4-8.9
	c0-9.5,6.4-15.5,12.4-15.5c5.3,0,7.4,3.6,7.6,8.4C238.8,213.5,233.8,221.8,226.3,221.8L226.3,221.8z"/>
<g class="st0">
	
		<linearGradient id="SVGID_5_" gradientUnits="userSpaceOnUse" x1="277.5" y1="497.99" x2="277.5" y2="428.79" gradientTransform="matrix(1 0 0 1 -135 -227.39)">
		<stop  offset="0" style="stop-color:#808080;stop-opacity:0.25"/>
		<stop  offset="0.54" style="stop-color:#808080;stop-opacity:0.12"/>
		<stop  offset="1" style="stop-color:#808080;stop-opacity:0.1"/>
	</linearGradient>
	<path class="st6" d="M154.8,253.1c15.2,0,22.2-8.1,22.2-19c0-19-15.3-32.7-34.4-32.7c-19.1,0-34.6,15.5-34.6,34.6
		s15.5,34.6,34.6,34.6c7-0.1,13.9-2.3,19.6-6.4c0.6-0.4,1-1,1.1-1.7c0.1-0.6-0.1-1.2-0.5-1.6c-0.9-0.8-2.3-0.7-3.1,0.2l-0.1,0.1
		c-1.3,1.6-5,4.5-16.1,4.7c-16.6,0.5-30.5-12.6-31-29.3c0-0.2,0-0.4,0-0.6c0-16.7,13.7-29.9,30.1-30.1s29.8,11.5,29.8,27.7
		c0,10.4-7.2,15.2-15.9,15c-2.8,0.2-3.3-0.9-3-4.8c0.3-3.2,3.3-16.5,4.4-21.1c0.3-1.4-0.5-2.8-1.9-3.1c-0.2-0.1-0.5-0.1-0.7-0.1
		h-0.2c-1.2,0.1-2.1,1.1-2.2,2.3c-0.1,0.7-0.2,1.5-0.2,2.3c-2.1-3.7-5.9-6-10.2-6.1c-9.8,0.2-18.3,9.1-18.7,22
		c0,8.7,4.6,13.7,12.6,13.7c4.8-0.1,9.3-2.5,12-6.5C148.3,247.2,148.2,252.8,154.8,253.1z M137.2,249.2c-5,0-8-3.7-8-9.6
		c0-10.2,6.8-16.6,13.3-16.6c5.7,0,8,3.9,8.1,9.1C150.7,240.4,145.4,249.2,137.2,249.2L137.2,249.2z"/>
</g>
<path class="st2" d="M154,251.9c14.1,0,20.6-7.6,20.6-17.7c0-17.7-14.3-30.4-32-30.4c-17.8,0-32.2,14.4-32.2,32.2
	s14.4,32.2,32.2,32.2c6.5-0.1,12.9-2.2,18.2-6c0.5-0.4,0.9-0.9,1-1.6c0.1-0.5-0.1-1.1-0.5-1.5c-0.8-0.7-2.1-0.6-2.8,0.2
	c0,0-0.1,0.1-0.1,0.2c-1.2,1.5-4.7,4.1-15,4.4c-15.5,0.4-28.3-11.7-28.8-27.2c0-0.2,0-0.4,0-0.6c0-15.5,12.7-27.8,28-28
	s27.7,10.7,27.7,25.8c0,9.6-6.7,14.1-14.8,13.9c-2.6,0.2-3.1-0.9-2.8-4.5c0.3-3,3.1-15.3,4.1-19.6c0.3-1.3-0.4-2.6-1.7-2.9
	c-0.2-0.1-0.5-0.1-0.7-0.1h-0.2c-1.1,0.1-2,1-2.1,2.1c-0.1,0.7-0.1,1.4-0.2,2.1c-1.9-3.5-5.5-5.6-9.5-5.7c-9.1,0.2-17,8.4-17.4,20.5
	c0,8.1,4.3,12.7,11.7,12.7c4.4-0.1,8.5-2.3,11-6C148,246.3,147.8,251.6,154,251.9z M137.7,248.3c-4.6,0-7.4-3.4-7.4-8.9
	c0-9.5,6.4-15.5,12.4-15.5c5.3,0,7.4,3.6,7.6,8.4C150.2,240.1,145.2,248.3,137.7,248.3L137.7,248.3z"/>
<g class="st0">
	<path class="st2" d="M154.8,360.1c15.2,0,22.2-8.1,22.2-19c0-19-15.3-32.7-34.4-32.7c-19.1,0-34.6,15.5-34.6,34.6
		s15.5,34.6,34.6,34.6c7-0.1,13.9-2.3,19.6-6.4c0.6-0.4,1-1,1.1-1.7c0.1-0.6-0.1-1.2-0.5-1.6c-0.9-0.8-2.3-0.7-3.1,0.2l-0.1,0.1
		c-1.3,1.7-5,4.5-16.1,4.7c-16.6,0.5-30.5-12.6-31-29.3c0-0.2,0-0.4,0-0.6c0-16.7,13.7-29.9,30.1-30.1s29.8,11.5,29.8,27.7
		c0,10.4-7.2,15.2-15.9,15c-2.8,0.2-3.3-0.9-3-4.8c0.3-3.2,3.3-16.5,4.4-21.1c0.3-1.4-0.5-2.8-1.9-3.1c-0.2-0.1-0.5-0.1-0.7-0.1
		h-0.2c-1.2,0.1-2.1,1.1-2.2,2.3c-0.1,0.7-0.2,1.5-0.2,2.3c-2.1-3.7-5.9-6-10.2-6.1c-9.8,0.2-18.3,9.1-18.7,22
		c0,8.7,4.6,13.7,12.6,13.7c4.8-0.1,9.3-2.5,12-6.5C148.3,354.2,148.2,359.7,154.8,360.1z M137.2,356.2c-5,0-8-3.7-8-9.6
		c0-10.2,6.8-16.6,13.3-16.6c5.7,0,8,3.9,8.1,9.1C150.7,347.3,145.4,356.2,137.2,356.2z"/>
</g>
<path class="st2" d="M154,358.9c14.1,0,20.6-7.6,20.6-17.7c0-17.7-14.3-30.4-32-30.4c-17.8,0-32.2,14.4-32.2,32.2
	s14.4,32.2,32.2,32.2c6.5-0.1,12.9-2.2,18.2-6c0.5-0.4,0.9-0.9,1-1.6c0.1-0.5-0.1-1.1-0.5-1.5c-0.8-0.7-2.1-0.6-2.8,0.2
	c0,0-0.1,0.1-0.1,0.2c-1.2,1.5-4.7,4.1-15,4.4c-15.5,0.4-28.3-11.7-28.8-27.2c0-0.2,0-0.4,0-0.6c0-15.5,12.7-27.8,28-28
	s27.7,10.7,27.7,25.8c0,9.6-6.7,14.1-14.8,13.9c-2.6,0.2-3.1-0.9-2.8-4.5c0.3-3,3.1-15.3,4.1-19.7c0.3-1.3-0.4-2.6-1.7-2.9
	c-0.2-0.1-0.5-0.1-0.7-0.1h-0.2c-1.1,0.1-2,1-2.1,2.1c-0.1,0.7-0.1,1.4-0.2,2.1c-1.9-3.4-5.6-5.5-9.5-5.5c-9.1,0.2-17,8.4-17.4,20.5
	c0,8.1,4.3,12.7,11.7,12.7c4.4-0.1,8.5-2.3,11-6C147.9,353.4,147.8,358.5,154,358.9z M137.7,355.3c-4.6,0-7.4-3.4-7.4-8.9
	c0-9.5,6.4-15.5,12.4-15.5c5.3,0,7.4,3.6,7.6,8.4C150.2,347,145.2,355.3,137.7,355.3L137.7,355.3z"/>
<g class="st0">
	
		<linearGradient id="SVGID_6_" gradientUnits="userSpaceOnUse" x1="429.2" y1="662.69" x2="429.2" y2="592.99" gradientTransform="matrix(1 0 0 1 -135 -227.39)">
		<stop  offset="0" style="stop-color:#808080;stop-opacity:0.25"/>
		<stop  offset="0.54" style="stop-color:#808080;stop-opacity:0.12"/>
		<stop  offset="1" style="stop-color:#808080;stop-opacity:0.1"/>
	</linearGradient>
	<path class="st7" d="M306.6,417.8c15.3,0,22.4-8.2,22.4-19.2c0-19.2-15.5-33-34.7-33s-34.9,15.6-34.9,34.9
		c0,19.2,15.6,34.8,34.9,34.8l0,0c7.1-0.1,14-2.3,19.7-6.5c0.6-0.4,1-1,1.1-1.7c0.1-0.6-0.1-1.2-0.5-1.6c-0.9-0.8-2.3-0.7-3.1,0.3
		l-0.1,0.1c-1.3,1.7-5.1,4.5-16.3,4.7c-16.8,0.4-30.7-12.8-31.2-29.6c0-0.2,0-0.3,0-0.5c-0.1-16.8,13.8-30.1,30.4-30.3
		s30,11.5,30,28c0,10.4-7.3,15.3-16,15.1c-2.8,0.2-3.3-0.9-3-4.8c0.3-3.2,3.4-16.6,4.5-21.3c0.3-1.4-0.5-2.8-1.9-3.1
		c-0.2-0.1-0.5-0.1-0.7-0.1H307c-1.2,0.1-2.1,1.1-2.3,2.3c-0.1,0.8-0.2,1.5-0.2,2.3c-2.1-3.7-6-6.1-10.3-6.2
		c-9.9,0.2-18.5,9.1-18.8,22.2c0,8.8,4.7,13.8,12.7,13.8c4.8-0.1,9.2-2.5,11.9-6.5C300.2,411.9,299.9,417.4,306.6,417.8z
		 M288.9,413.9c-5,0-8-3.7-8-9.7c0-10.3,6.9-16.8,13.4-16.8c5.8,0,8,3.9,8.2,9.1C302.5,404.9,297.1,413.9,288.9,413.9L288.9,413.9z"
		/>
</g>
<path class="st2" d="M305.7,416.4c14.1,0,20.6-7.6,20.6-17.7c0-17.7-14.3-30.4-32-30.4c-17.8,0-32.2,14.4-32.2,32.2
	s14.4,32.2,32.2,32.2c6.5-0.1,12.9-2.2,18.2-6c0.5-0.4,0.9-0.9,1-1.6c0.1-0.5-0.1-1.1-0.5-1.5c-0.8-0.7-2.1-0.6-2.8,0.2
	c0,0-0.1,0.1-0.1,0.2c-1.2,1.5-4.7,4.1-15,4.4c-15.5,0.4-28.3-11.7-28.8-27.2c0-0.2,0-0.4,0-0.6c0-15.5,12.7-27.8,28-28
	s27.7,10.7,27.7,25.8c0,9.6-6.7,14.1-14.8,13.9c-2.6,0.2-3.1-0.9-2.8-4.5c0.3-3,3.1-15.3,4.1-19.7c0.3-1.3-0.4-2.6-1.7-2.9
	c-0.2-0.1-0.5-0.1-0.7-0.1H306c-1.1,0.1-2,1-2.1,2.1c-0.1,0.7-0.1,1.4-0.2,2.1c-1.9-3.5-5.5-5.6-9.5-5.7c-9.1,0.2-17,8.4-17.4,20.5
	c0,8.1,4.3,12.7,11.7,12.7c4.4-0.1,8.5-2.3,11-6C299.6,410.9,299.5,416.1,305.7,416.4z M289.3,412.8c-4.6,0-7.4-3.4-7.4-8.9
	c0-9.5,6.4-15.5,12.4-15.5c5.3,0,7.4,3.6,7.6,8.4C301.9,404.6,296.9,412.8,289.3,412.8z"/>
<path class="st8" d="M247.6,315.9c10.1,0,14.7-5.4,14.7-12.7c0-12.7-10.2-21.8-22.8-21.8c-12.7,0.6-22.5,11.4-21.9,24
	c0.6,11.9,10,21.3,21.9,21.9c4.7,0,9.2-1.5,13-4.3c0.4-0.3,0.6-0.7,0.7-1.1c0.1-0.4-0.1-0.8-0.3-1.1c-0.6-0.5-1.5-0.4-2,0.2
	c0,0,0,0.1-0.1,0.1c-0.8,1.1-3.3,3-10.7,3.1c-11,0.1-20-8.6-20.2-19.6s8.6-20,19.6-20.2c10.9-0.1,19.8,7.6,19.8,18.4
	c0,6.9-4.8,10.1-10.6,10c-1.8,0.1-2.2-0.6-2-3.2c0.2-2.1,2.2-11,2.9-14c0.2-0.9-0.3-1.8-1.3-2.1c-0.2,0-0.3-0.1-0.5,0h-0.1
	c-0.8,0.1-1.4,0.7-1.5,1.5c-0.1,0.5-0.1,1-0.1,1.5c-1.4-2.5-3.9-4-6.8-4c-6.5,0.1-12.2,6-12.4,14.6c0,5.8,3.1,9.1,8.3,9.1
	c3.2-0.1,6.1-1.7,7.9-4.3C243.3,312.1,243.2,315.6,247.6,315.9z M235.9,313.3c-3.3,0-5.3-2.5-5.3-6.4c0-6.8,4.5-11.1,8.8-11.1
	c3.8,0,5.3,2.6,5.4,6C244.9,307.4,241.3,313.3,235.9,313.3L235.9,313.3z"/>
<path class="st8" d="M53.8,354.3c10.1,0,14.7-5.4,14.7-12.7c0-12.7-10.2-21.8-22.8-21.8c-12.7,0.6-22.5,11.4-21.9,24
	c0.6,11.9,10,21.3,21.9,21.9c4.7,0,9.2-1.5,13-4.3c0.4-0.3,0.6-0.7,0.7-1.1c0.1-0.4-0.1-0.8-0.3-1.1c-0.6-0.5-1.5-0.4-2,0.2
	c0,0,0,0.1-0.1,0.1c-0.8,1.1-3.3,3-10.7,3.1c-11,0.1-20-8.6-20.2-19.6s8.6-20,19.6-20.2c10.9-0.1,19.8,7.6,19.8,18.4
	c0,6.9-4.8,10.1-10.6,10c-1.8,0.1-2.2-0.6-2-3.2c0.2-2.1,2.2-11,2.9-14c0.2-0.9-0.3-1.8-1.3-2.1c-0.2,0-0.3-0.1-0.5,0h0
	c-0.8,0.1-1.4,0.7-1.5,1.5c-0.1,0.5-0.1,1-0.1,1.5c-1.4-2.5-3.9-4-6.8-4c-6.5,0.1-12.2,6-12.4,14.6c0,5.8,3.1,9.1,8.3,9.1
	c3.2-0.1,6.1-1.7,7.9-4.3C49.5,350.4,49.4,354,53.8,354.3z M42.2,351.7c-3.3,0-5.3-2.5-5.3-6.4c0-6.8,4.5-11.1,8.8-11.1
	c3.8,0,5.3,2.6,5.4,6C51.1,345.8,47.6,351.7,42.2,351.7L42.2,351.7z"/>
<path class="st8" d="M30.1,183.4c10.1,0,14.7-5.4,14.7-12.6c0-12.6-10.2-21.8-22.8-21.8c-12.7,0.6-22.5,11.4-21.9,24
	c0.6,11.9,10,21.3,21.9,21.9c4.7,0,9.2-1.5,13-4.3c0.4-0.3,0.6-0.7,0.7-1.1c0.1-0.4-0.1-0.8-0.3-1.1c-0.6-0.5-1.5-0.4-2,0.2
	c0,0,0,0.1-0.1,0.1c-0.8,1.1-3.3,3-10.7,3.1c-11,0.1-20-8.6-20.2-19.6c-0.1-11,8.6-20,19.6-20.2c10.9-0.1,19.8,7.6,19.8,18.4
	c0,6.9-4.8,10.1-10.6,10c-1.8,0.1-2.2-0.6-2-3.2c0.2-2.1,2.2-11,2.9-14c0.2-0.9-0.3-1.8-1.3-2.1c-0.2,0-0.3-0.1-0.5,0h-0.1
	c-0.8,0.1-1.4,0.7-1.5,1.5c-0.1,0.5-0.1,1-0.1,1.5c-1.4-2.5-3.9-4-6.8-4c-6.5,0.1-12.2,6-12.4,14.6c0,5.8,3.1,9.1,8.3,9.1
	c3.2-0.1,6.1-1.7,7.9-4.3C25.7,179.5,25.6,183.1,30.1,183.4z M18.4,180.8c-3.3,0-5.3-2.5-5.3-6.4c0-6.8,4.5-11.1,8.8-11.1
	c3.8,0,5.3,2.6,5.4,6C27.4,174.9,23.8,180.8,18.4,180.8z"/>
<path class="st8" d="M414,188.8c10.1,0,14.7-5.4,14.7-12.6c0-12.6-10.2-21.8-22.8-21.8c-12.7,0.6-22.5,11.4-21.9,24
	c0.6,11.9,10,21.3,21.9,21.9c4.7,0,9.2-1.5,13-4.3c0.4-0.3,0.6-0.7,0.7-1.1s-0.1-0.8-0.3-1.1c-0.6-0.5-1.5-0.4-2,0.2
	c0,0,0,0.1-0.1,0.1c-0.8,1.1-3.3,3-10.7,3.1c-11,0.1-20-8.6-20.2-19.6c-0.1-11,8.6-20,19.6-20.2c10.9-0.1,19.8,7.6,19.8,18.4
	c0,6.9-4.8,10.1-10.6,10c-1.8,0.1-2.2-0.6-2-3.2c0.2-2.1,2.2-11,2.9-14c0.2-0.9-0.3-1.8-1.3-2.1c-0.2,0-0.3-0.1-0.5,0h-0.1
	c-0.8,0.1-1.4,0.7-1.5,1.5c-0.1,0.5-0.1,1-0.1,1.5c-1.4-2.5-3.9-4-6.8-4c-6.5,0.1-12.2,6-12.4,14.6c0,5.8,3.1,9.1,8.3,9.1
	c3.2-0.1,6.1-1.7,7.9-4.3C409.7,185,409.5,188.6,414,188.8z M402.3,186.3c-3.3,0-5.3-2.5-5.3-6.4c0-6.8,4.5-11.1,8.8-11.1
	c3.8,0,5.3,2.6,5.4,6C411.3,180.4,407.7,186.3,402.3,186.3L402.3,186.3z"/>
<path class="st9" d="M49.3,234.1c5.6,0,8.3-3,8.3-7.1c0-7.1-5.7-12.2-12.8-12.2c-7.1,0.2-12.7,6.1-12.5,13.2
	c0.2,6.8,5.7,12.3,12.5,12.5c2.6,0,5.2-0.9,7.3-2.4c0.2-0.2,0.4-0.4,0.4-0.6s0-0.4-0.2-0.6c-0.3-0.3-0.9-0.2-1.1,0.1l0,0
	c-0.5,0.6-1.9,1.7-6,1.8c-6.2,0.2-11.3-4.5-11.6-10.7c-0.2-6.2,4.5-11.3,10.7-11.6c0.2,0,0.4,0,0.6,0c6.1-0.1,11.1,4.3,11.1,10.3
	c0,3.9-2.7,5.6-5.9,5.6c-1,0.1-1.2-0.3-1.1-1.8c0.1-1.2,1.3-6.1,1.7-7.9c0.1-0.5-0.3-1.1-0.8-1.2c-0.1,0-0.1,0-0.2,0h-0.1
	c-0.4,0.1-0.8,0.4-0.8,0.8c0,0.3-0.1,0.6-0.1,0.8c-0.8-1.4-2.2-2.2-3.8-2.3c-3.7,0.1-6.8,3.4-7,8.2c0,3.2,1.7,5.1,4.7,5.1
	c1.8,0,3.4-0.9,4.4-2.4c0,1.2,1,2.2,2.2,2.2C49.2,234.1,49.3,234.1,49.3,234.1z M42.8,232.7c-1.9,0-3-1.4-3-3.6c0-3.8,2.5-6.2,5-6.2
	c2.1,0,3,1.4,3,3.4C47.8,229.3,45.8,232.7,42.8,232.7L42.8,232.7z"/>
<path class="st9" d="M115.2,288c5.6,0,8.3-3,8.3-7.1c0-7.1-5.7-12.2-12.8-12.2c-7.1,0.2-12.7,6.1-12.5,13.2
	c0.2,6.8,5.7,12.3,12.5,12.5c2.6,0,5.2-0.9,7.3-2.4c0.2-0.2,0.4-0.4,0.4-0.6s0-0.4-0.2-0.6c-0.3-0.3-0.9-0.2-1.1,0.1l0,0
	c-0.5,0.6-1.9,1.7-6,1.8c-6.2,0.2-11.3-4.5-11.6-10.7c-0.2-6.2,4.5-11.3,10.7-11.6c0.2,0,0.4,0,0.6,0c6.1-0.1,11.1,4.3,11.1,10.3
	c0,3.8-2.7,5.6-5.9,5.6c-1,0.1-1.2-0.3-1.1-1.8c0.1-1.2,1.3-6.1,1.7-7.9c0.1-0.5-0.3-1.1-0.8-1.2c-0.1,0-0.1,0-0.2,0h-0.1
	c-0.4,0.1-0.8,0.4-0.8,0.8c0,0.3-0.1,0.6-0.1,0.8c-0.8-1.4-2.2-2.2-3.8-2.3c-3.7,0.1-6.8,3.4-7,8.2c0,3.2,1.7,5.1,4.7,5.1
	c1.8,0,3.4-0.9,4.4-2.4c0,1.2,1,2.2,2.2,2.2C115,288,115.1,288,115.2,288z M108.6,286.6c-1.9,0-3-1.4-3-3.6c0-3.8,2.5-6.2,5-6.2
	c2.1,0,3,1.4,3,3.4C113.6,283.3,111.7,286.6,108.6,286.6L108.6,286.6z"/>
<path class="st9" d="M311.7,222.2c5.6,0,8.3-3,8.3-7.1c0-7.1-5.7-12.2-12.8-12.2c-7.1,0.2-12.7,6.1-12.5,13.2
	c0.2,6.8,5.7,12.3,12.5,12.5c2.6,0,5.2-0.9,7.3-2.4c0.2-0.2,0.4-0.4,0.4-0.6s0-0.4-0.2-0.6c-0.3-0.3-0.9-0.2-1.1,0.1l0,0
	c-0.5,0.6-1.9,1.7-6,1.8c-6.2,0.2-11.3-4.5-11.6-10.7c-0.2-6.2,4.5-11.3,10.7-11.6c0.2,0,0.4,0,0.6,0c6.1-0.1,11.1,4.3,11.1,10.3
	c0,3.9-2.7,5.6-5.9,5.6c-1,0.1-1.2-0.3-1.1-1.8c0.1-1.2,1.3-6.1,1.7-7.9c0.1-0.5-0.3-1.1-0.8-1.2c-0.1,0-0.1,0-0.2,0H312
	c-0.4,0.1-0.8,0.4-0.8,0.8c0,0.3-0.1,0.6-0.1,0.8c-0.8-1.4-2.2-2.2-3.8-2.3c-3.7,0.1-6.8,3.4-7,8.2c0,3.2,1.7,5.1,4.7,5.1
	c1.8,0,3.4-0.9,4.4-2.4c0,1.2,1,2.2,2.2,2.2C311.5,222.2,311.6,222.2,311.7,222.2z M305.1,220.7c-1.9,0-3-1.4-3-3.6
	c0-3.8,2.5-6.2,5-6.2c2.1,0,3,1.4,3,3.4C310.2,217.5,308.2,220.8,305.1,220.7L305.1,220.7z"/>
<path class="st9" d="M179.1,165.5c5.6,0,8.3-3,8.3-7.1c0-7.1-5.7-12.2-12.8-12.2c-7.1,0.2-12.7,6.1-12.5,13.2
	c0.2,6.8,5.7,12.3,12.5,12.5c2.6,0,5.2-0.9,7.3-2.4c0.2-0.2,0.4-0.4,0.4-0.6s0-0.4-0.2-0.6c-0.3-0.3-0.9-0.2-1.1,0.1l0,0
	c-0.5,0.6-1.9,1.7-6,1.8c-6.2,0.2-11.3-4.5-11.6-10.7c-0.2-6.2,4.5-11.3,10.7-11.6c0.2,0,0.4,0,0.6,0c6.1-0.1,11.1,4.3,11.1,10.3
	c0,3.9-2.7,5.6-5.9,5.6c-1,0.1-1.2-0.3-1.1-1.8c0.1-1.2,1.3-6.1,1.7-7.9c0.1-0.5-0.3-1.1-0.8-1.2c-0.1,0-0.1,0-0.2,0h-0.1
	c-0.4,0.1-0.8,0.4-0.8,0.8c0,0.3-0.1,0.6-0.1,0.8c-0.8-1.4-2.2-2.2-3.8-2.3c-3.7,0.1-6.8,3.4-7,8.2c0,3.2,1.7,5.1,4.7,5.1
	c1.8,0,3.4-0.9,4.4-2.4c0,1.2,1,2.2,2.2,2.2C179,165.5,179.1,165.5,179.1,165.5z M172.6,164.1c-1.9,0-3-1.4-3-3.6
	c0-3.8,2.5-6.2,5-6.2c2.1,0,3,1.4,3,3.4C177.6,160.8,175.6,164.1,172.6,164.1L172.6,164.1z"/>
<path class="st8" d="M247.6,122.1c10.1,0,14.7-5.4,14.7-12.6c0-12.6-10.2-21.8-22.8-21.8c-12.7,0.6-22.5,11.4-21.9,24
	c0.6,11.9,10,21.3,21.9,21.9c4.7,0,9.2-1.5,13-4.3c0.4-0.3,0.6-0.7,0.7-1.1c0.1-0.4-0.1-0.8-0.3-1.1c-0.6-0.5-1.5-0.4-2,0.2
	c0,0,0,0.1-0.1,0.1c-0.8,1.1-3.3,3-10.7,3.1c-11,0.1-20-8.6-20.2-19.6c-0.1-11,8.6-20,19.6-20.2c10.9-0.1,19.8,7.6,19.8,18.4
	c0,6.9-4.8,10.1-10.6,10c-1.8,0.1-2.2-0.6-2-3.2c0.2-2.1,2.2-11,2.9-14c0.2-0.9-0.3-1.8-1.3-2.1c-0.2,0-0.3-0.1-0.5,0h-0.1
	c-0.8,0.1-1.4,0.7-1.5,1.5c-0.1,0.5-0.1,1-0.1,1.5c-1.4-2.5-3.9-4-6.8-4c-6.5,0.1-12.2,6-12.4,14.6c0,5.8,3.1,9.1,8.3,9.1
	c3.2-0.1,6.1-1.7,7.9-4.3C243.3,118.3,243.2,121.9,247.6,122.1z M235.9,119.5c-3.3,0-5.3-2.5-5.3-6.4c0-6.8,4.5-11.1,8.8-11.1
	c3.8,0,5.3,2.6,5.4,6C244.9,113.6,241.3,119.5,235.9,119.5L235.9,119.5z"/>
<g class="st0">
	
		<linearGradient id="SVGID_7_" gradientUnits="userSpaceOnUse" x1="525.3" y1="591.99" x2="525.3" y2="449.79" gradientTransform="matrix(1 0 0 1 -135 -227.39)">
		<stop  offset="0" style="stop-color:#808080;stop-opacity:0.25"/>
		<stop  offset="0.54" style="stop-color:#808080;stop-opacity:0.12"/>
		<stop  offset="1" style="stop-color:#808080;stop-opacity:0.1"/>
	</linearGradient>
	<path class="st10" d="M415.4,328.8c31.2,0,45.6-16.7,45.6-39.1c0-39.1-31.5-67.3-70.7-67.3c-39.2,0-70.7,31.9-70.7,71.1
		s31.5,71.1,70.7,71.1c14.4-0.1,28.5-4.7,40.2-13.2c1.2-0.8,2-2.1,2.2-3.5c0.2-1.2-0.2-2.4-1.1-3.3c-1.9-1.6-4.7-1.4-6.3,0.5
		c-0.1,0.1-0.1,0.2-0.2,0.3c-2.6,3.4-10.3,9.2-33.2,9.7c-34.6,0.8-63.5-26.8-63.6-61.3c-0.1-34.3,28.1-61.4,62-61.8
		s61.2,23.6,61.2,57c0,21.3-14.8,31.2-32.7,30.8c-5.7,0.4-6.8-1.9-6.1-9.9c0.6-6.5,6.9-33.9,9.1-43.4c0.7-2.8-1.1-5.7-3.9-6.4
		c-0.5-0.1-0.9-0.2-1.4-0.1h-0.4c-2.4,0.3-4.3,2.2-4.6,4.6c-0.2,1.5-0.3,3.1-0.3,4.6c-3.4-6.8-11.4-12.2-20.9-12.5
		c-20.1,0.4-37.6,18.6-38.4,45.2c0,17.9,9.5,28.1,25.8,28.1c11.4,0,19.8-6.8,24.3-13.3C402.1,316.7,401.7,328.1,415.4,328.8z
		 M379.3,320.8c-10.3,0-16.3-7.6-16.3-19.8c0-20.9,14.1-34.2,27.4-34.2c11.8,0,16.3,8,16.7,18.6C407,302.6,396,320.9,379.3,320.8
		L379.3,320.8z"/>
</g>
<path class="st2" d="M414.5,327.6c30.1,0,44-16.1,44-37.8c0-37.8-30.4-64.9-68.2-64.9c-37.8,0-68.2,30.8-68.2,68.5
	s30.4,68.5,68.2,68.5c13.9-0.1,27.5-4.6,38.8-12.7c1.1-0.8,1.9-2,2.1-3.4c0.2-1.2-0.2-2.4-1.1-3.2c-1.8-1.5-4.5-1.3-6.1,0.5
	c-0.1,0.1-0.1,0.2-0.2,0.3c-2.5,3.3-9.9,8.8-32,9.3c-33.4,0.8-61.3-25.8-61.4-59.2c-0.1-33.1,27.1-59.2,59.8-59.6
	c32.7-0.4,59,22.7,59,55c0,20.5-14.3,30.1-31.5,29.7c-5.5,0.4-6.6-1.8-5.9-9.5c0.6-6.3,6.6-32.7,8.8-41.9c0.7-2.7-1-5.5-3.8-6.2
	c-0.4-0.1-0.9-0.2-1.4-0.1H415c-2.3,0.3-4.2,2.1-4.4,4.5c-0.2,1.5-0.3,3-0.3,4.5c-3.3-6.6-11-11.7-20.2-12.1
	c-19.4,0.4-36.3,18-37,43.6c0,17.2,9.2,27.1,24.9,27.1c11,0,19.1-6.6,23.5-12.8C401.7,315.9,401.3,326.9,414.5,327.6z M379.7,319.9
	c-9.9,0-15.8-7.3-15.8-19.1c0-20.2,13.6-33,26.4-33c11.4,0,15.8,7.7,16.1,18C406.4,302.3,395.8,319.9,379.7,319.9z"/>
<path class="st11" d="M-112.6,123.2c0.9-4.2,6.5-5.8,10.6-4.5s7.3,4.5,11,6.8s8.7,3.6,12.1,1c3.3-2.4,3.8-7.3,6.5-10.5
	s7.5-4.3,11.8-3.6s8.1,2.9,11.8,5l22.9,12.9"/>
<path class="st11" d="M-120.6,148.2c0.9-4.2,6.5-5.8,10.6-4.5s7.3,4.5,11,6.8s8.7,3.6,12.1,1c3.3-2.4,3.8-7.3,6.5-10.5
	s7.5-4.3,11.8-3.6s8.1,2.9,11.8,5l22.9,12.9"/>
<path class="st11" d="M-112.6,358.2c0.9,4.2,6.5,5.8,10.6,4.5s7.3-4.5,11-6.8s8.7-3.6,12.1-1c3.3,2.4,3.8,7.3,6.5,10.5
	s7.5,4.3,11.8,3.6s8.1-2.9,11.8-5l22.9-12.9"/>
<path class="st11" d="M-120.6,333.2c0.9,4.2,6.5,5.8,10.6,4.5s7.3-4.5,11-6.8s8.7-3.6,12.1-1c3.3,2.4,3.8,7.3,6.5,10.5
	s7.5,4.3,11.8,3.6s8.1-2.9,11.8-5l22.9-12.9"/>
</svg>
