<?xml version="1.0" encoding="utf-8"?>
<!-- Generator: Adobe Illustrator 23.0.0, SVG Export Plug-In . SVG Version: 6.00 Build 0)  -->
<svg version="1.1" id="_x38_55033fa-f203-4bd6-a750-76a03b91c714"
	 xmlns="http://www.w3.org/2000/svg" xmlns:xlink="http://www.w3.org/1999/xlink" x="0px" y="0px" viewBox="0 0 693.8 727.1"
	 style="enable-background:new 0 0 693.8 727.1;" xml:space="preserve">
<style type="text/css">
	.st0{opacity:0.21;fill:none;stroke:#2196F3;stroke-width:4;stroke-miterlimit:10;stroke-dasharray:12;enable-background:new    ;}
	.st1{opacity:0.5;fill:none;stroke:#2196F3;stroke-width:4;stroke-miterlimit:10;stroke-dasharray:12;enable-background:new    ;}
	.st2{opacity:0.21;}
	.st3{fill:none;stroke:#2196F3;stroke-width:4;stroke-miterlimit:10;}
	.st4{fill:none;stroke:#2196F3;stroke-width:4;stroke-miterlimit:10;stroke-dasharray:11.95,11.95;}
	.st5{opacity:0.5;}
	.st6{fill:none;stroke:#2196F3;stroke-width:4;stroke-miterlimit:10;stroke-dasharray:11.56,11.56;}
	.st7{fill:url(#SVGID_1_);}
	.st8{fill:#FFFFFF;}
	.st9{fill:#3F93F7;}
	.st10{fill:#DBDBDB;}
	.st11{fill:url(#SVGID_2_);}
	.st12{opacity:0.2;}
	.st13{fill-opacity:0.24;}
</style>
<title>sync4</title>
<path class="st0" d="M90.1,360.6c0-159.3,101.6-294.8,243.5-345.4"/>
<path class="st1" d="M631.3,682.9c-53.6,29.1-113.7,44.3-174.7,44.2c-119.5,0-225.7-57.2-292.6-145.8"/>
<g class="st2">
	<path class="st3" d="M693.8,429.7c-0.6,1.9-1.1,3.8-1.8,5.7"/>
	<path class="st4" d="M688.2,446.8c-35,93.9-125.5,160.8-231.6,160.8c-136.4,0-247-110.6-247-247s110.6-247,247-247
		c54.1-0.1,106.8,17.7,149.8,50.6"/>
	<path class="st3" d="M611.1,167.9c1.6,1.3,3.1,2.5,4.6,3.8"/>
</g>
<g class="st5">
	<path class="st3" d="M435.6,222.2c2-0.3,4-0.5,6-0.8"/>
	<path class="st6" d="M453.1,220.6c1.2,0,2.3,0,3.5,0c77.3,0,140,62.7,140,140c0,23.9-6.1,47.4-17.7,68.2"/>
	<path class="st3" d="M575.9,433.8c-1,1.7-2.1,3.4-3.3,5"/>
</g>
<linearGradient id="SVGID_1_" gradientUnits="userSpaceOnUse" x1="299.2391" y1="205.1655" x2="554.2931" y2="807.4282" gradientTransform="matrix(0.9208 -0.3899 -0.3899 -0.9208 62.5678 959.6442)">
	<stop  offset="0" style="stop-color:#808080;stop-opacity:0.25"/>
	<stop  offset="0.54" style="stop-color:#808080;stop-opacity:0.12"/>
	<stop  offset="1" style="stop-color:#808080;stop-opacity:0.1"/>
</linearGradient>
<path class="st7" d="M7.5,117.2L281.8,1c6.2-2.6,13.4,0.3,16.1,6.5l217.4,513.3c2.6,6.2-0.3,13.4-6.5,16.1L234.4,653.1
	c-6.2,2.6-13.4-0.3-16.1-6.5L1,133.2C-1.7,127,1.3,119.8,7.5,117.2z"/>
<path class="st8" d="M15.8,122.2L279.6,10.5c6.9-2.9,14.9,0.3,17.9,7.2L507.6,514c2.9,6.9-0.3,14.9-7.2,17.9L236.6,643.6
	c-6.9,2.9-14.9-0.3-17.9-7.2L8.6,140.1C5.7,133.1,8.9,125.1,15.8,122.2z"/>
<path class="st9" d="M227,52.6c3.1,12.2-3.1,24.8-14.6,29.7l-99.8,42.3c-11.6,4.9-25,0.6-31.5-10.1l-52.8,22.4
	c-6.1,2.6-8.9,9.5-6.3,15.6l0,0l200.5,473.3c2.6,6.1,9.5,8.9,15.6,6.3l0,0l252.4-106.9c6.1-2.6,8.9-9.5,6.3-15.6l0,0L296.3,36.2
	c-2.6-6.1-9.5-8.9-15.6-6.3l0,0L227,52.6z"/>
<path class="st10" d="M126,98.3l60.6-25.7c1-0.4,2.2,0,2.6,1.1l0.1,0.3c0.4,1,0,2.2-1.1,2.6l-60.7,25.7c-1,0.4-2.2,0-2.6-1.1
	l-0.1-0.3C124.5,99.9,124.9,98.8,126,98.3z"/>
<circle class="st10" cx="202.8" cy="67.7" r="2.6"/>
<linearGradient id="SVGID_2_" gradientUnits="userSpaceOnUse" x1="552.2042" y1="351.4548" x2="552.2042" y2="456.5994" gradientTransform="matrix(0.8945 -0.4471 -0.4471 -0.8945 -49.2784 932.8517)">
	<stop  offset="0" style="stop-color:#000000;stop-opacity:0.12"/>
	<stop  offset="0.55" style="stop-color:#000000;stop-opacity:9.000000e-02"/>
	<stop  offset="1" style="stop-color:#000000;stop-opacity:2.000000e-02"/>
</linearGradient>
<polygon class="st11" points="300.9,266.1 274.2,260.7 257.4,342.5 222.9,335.7 217.3,363.3 267.3,372.7 267.3,372.7 279.9,375.4 
	"/>
<g class="st12">
	<path class="st8" d="M129.4,127.6l99.8-42.3c11.5-4.9,17.8-17.5,14.6-29.7l51-21.6l-0.8-1.8c-2.6-6.1-9.5-8.9-15.6-6.3l0,0
		l-53.6,22.7c3.1,12.2-3.1,24.8-14.6,29.7l-99.8,42.3c-2.7,1.1-5.5,1.8-8.4,1.9C109.3,129.5,120.1,131.5,129.4,127.6z"/>
	<path class="st8" d="M38.7,155.4c-2.6-6.1,0.3-13,6.3-15.6l0,0l45.5-19.3c-4.9-2.1-9-5.6-11.7-10.1l-52.9,22.4
		c-6.1,2.6-8.9,9.5-6.3,15.6l0,0l200.5,473.3c2.6,6.1,9.5,8.9,15.6,6.3l0,0l2.6-1.1L38.7,155.4z"/>
</g>
<g>
	<g>
		<g transform="translate(6.000000, 7.000000)">
			<path class="st13" d="M186.8,403.7l10.9-40.4c-6.7-11.8-10.3-25.2-10.2-39c0-43,34.4-78,76.7-78c20.5,0,39.8,8.1,54.2,22.9
				c14.5,14.7,22.5,34.3,22.4,55.2c0,43-34.4,78-76.7,78l0,0h0c-12.8,0-25.4-3.3-36.7-9.5L186.8,403.7L186.8,403.7z M229.4,378.7
				l2.3,1.4c9.8,5.9,21,9,32.4,9.1h0c35.1,0,63.7-29.1,63.7-64.8c0-17.3-6.6-33.6-18.6-45.9c-12-12.3-28.1-19-45.1-19
				c-35.2,0-63.8,29.1-63.8,64.8c0,12.2,3.3,24.2,9.7,34.5l1.5,2.5l-6.4,23.9L229.4,378.7L229.4,378.7z"/>
			<path class="st9" d="M190.3,399.5l10.4-38.5c-6.4-11.3-9.8-24.1-9.8-37.2c0-41,32.8-74.4,73.1-74.4c19.6,0,37.9,7.8,51.7,21.8
				s21.4,32.7,21.4,52.6c0,41-32.8,74.4-73.1,74.4l0,0h0c-12.2,0-24.3-3.1-34.9-9.1L190.3,399.5L190.3,399.5z"/>
			<path class="st8" d="M187.7,402.2l10.8-39.9c-6.6-11.7-10.1-24.9-10.1-38.5c0-42.5,34-77,75.8-77c20.3,0,39.3,8,53.6,22.6
				c14.3,14.6,22.2,33.9,22.2,54.5c0,42.5-34,77-75.8,77l0,0h0c-12.7,0-25.1-3.3-36.2-9.4L187.7,402.2L187.7,402.2z M229.7,377.5
				l2.3,1.4c9.7,5.8,20.7,8.9,32,8.9h0c34.7,0,62.9-28.7,62.9-64c0-17.1-6.5-33.2-18.4-45.3c-11.9-12.1-27.7-18.8-44.5-18.8
				c-34.7,0-63,28.7-63,64c0,12.1,3.3,23.9,9.6,34.1l1.5,2.4l-6.4,23.6L229.7,377.5L229.7,377.5z"/>
			<path class="st8" d="M245.1,291.6c-1.4-3.2-2.9-3.3-4.2-3.3c-1.1,0-2.4,0-3.6,0c-1.3,0-3.3,0.5-5,2.4c-1.7,1.9-6.6,6.6-6.6,16.1
				c0,9.5,6.8,18.6,7.7,19.9c0.9,1.3,13.1,21.4,32.3,29.1c16,6.4,19.2,5.1,22.7,4.8c3.5-0.3,11.2-4.7,12.8-9.2
				c1.6-4.5,1.6-8.3,1.1-9.2c-0.5-0.8-1.7-1.3-3.6-2.3c-1.9-1-11.2-5.6-12.9-6.3s-3-1-4.2,1c-1.3,1.9-4.9,6.2-6,7.5
				c-1.1,1.3-2.2,1.4-4.1,0.5c-1.9-1-8-3-15.2-9.6c-5.6-5.1-9.4-11.4-10.5-13.3c-1.1-1.9-0.1-3,0.8-3.9c0.8-0.8,1.9-2.3,2.8-3.4
				c0.9-1.1,1.3-1.9,1.9-3.2c0.6-1.3,0.3-2.4-0.1-3.4C250.5,304.9,246.8,295.4,245.1,291.6L245.1,291.6z"/>
		</g>
	</g>
</g>
</svg>
