<?xml version="1.0" encoding="utf-8"?>
<!-- Generator: Adobe Illustrator 23.0.0, SVG Export Plug-In . SVG Version: 6.00 Build 0)  -->
<svg version="1.1" id="Capa_1" xmlns="http://www.w3.org/2000/svg" xmlns:xlink="http://www.w3.org/1999/xlink" x="0px" y="0px"
	 viewBox="0 0 945.5 723.1" style="enable-background:new 0 0 945.5 723.1;" xml:space="preserve">
<style type="text/css">
	.st0{fill:url(#SVGID_1_);}
	.st1{fill:#FFFFFF;}
	.st2{opacity:0.3;}
	.st3{fill:#3F93F7;}
	.st4{clip-path:url(#SVGID_3_);}
	.st5{fill:#3F93F7;stroke:#FFFFFF;stroke-width:5;stroke-miterlimit:10;}
	.st6{fill:url(#SVGID_4_);}
	.st7{fill:url(#SVGID_5_);}
	.st8{fill:#F5F5F5;}
	.st9{fill:#FF5252;}
	.st10{fill:#FFFF00;}
	.st11{fill:#69F0AE;}
	.st12{opacity:0.5;fill:#3F93F7;enable-background:new    ;}
	.st13{fill:#E0E0E0;}
	.st14{fill:url(#SVGID_6_);}
</style>
<title>address</title>
<linearGradient id="SVGID_1_" gradientUnits="userSpaceOnUse" x1="747.0157" y1="230.848" x2="747.0157" y2="584.608" gradientTransform="matrix(1.0004 0.1386 0.1373 -0.9905 -190.4285 527.688)">
	<stop  offset="0" style="stop-color:#808080;stop-opacity:0.25"/>
	<stop  offset="0.54" style="stop-color:#808080;stop-opacity:0.12"/>
	<stop  offset="1" style="stop-color:#808080;stop-opacity:0.1"/>
</linearGradient>
<polygon class="st0" points="280.3,359.9 328.9,9.5 945.5,94.9 896.9,445.3 "/>
<rect x="439.8" y="-79.3" transform="matrix(0.1373 -0.9905 0.9905 0.1373 302.756 802.093)" class="st1" width="344.1" height="613.1"/>
<g class="st2">
	
		<rect id="f33a93cd-dff1-45ca-976d-3ca4de540e86" x="455.1" y="-66.7" transform="matrix(0.1373 -0.9905 0.9905 0.1373 303.5172 801.7843)" class="st3" width="313.9" height="586.8"/>
	<g>
		<defs>
			
				<rect id="SVGID_2_" x="455.1" y="-66.7" transform="matrix(0.1373 -0.9905 0.9905 0.1373 303.5172 801.7843)" width="313.9" height="586.8"/>
		</defs>
		<clipPath id="SVGID_3_">
			<use xlink:href="#SVGID_2_"  style="overflow:visible;"/>
		</clipPath>
		<g class="st4">
			<polyline class="st5" points="305.9,25.8 541.8,416.8 685.3,436.7 935.9,291.1 738.1,29.6 387.5,395.5 187.1,320.1 545.2,5.3 
				837.2,457.8 			"/>
		</g>
	</g>
</g>
<linearGradient id="SVGID_4_" gradientUnits="userSpaceOnUse" x1="633.9052" y1="465.0701" x2="633.9052" y2="620.8201" gradientTransform="matrix(0.9905 0.1373 0.1373 -0.9905 -184.9283 528.4405)">
	<stop  offset="0" style="stop-color:#808080;stop-opacity:0.25"/>
	<stop  offset="0.54" style="stop-color:#808080;stop-opacity:0.12"/>
	<stop  offset="1" style="stop-color:#808080;stop-opacity:0.1"/>
</linearGradient>
<path class="st6" d="M574.8,62.4c-4.2,30-65.9,92.7-65.9,92.7s-46.7-77.8-42.5-107.8c3.8-30,31.2-51.2,61.2-47.4
	c30,3.8,51.2,31.2,47.4,61.2C575,61.5,574.9,61.9,574.8,62.4L574.8,62.4z"/>
<path class="st3" d="M571.3,63.3c-3.9,28.1-61.8,87-61.8,87s-43.8-72.9-39.9-101.1c3.9-28.1,29.8-47.7,57.9-43.8
	S575.2,35.2,571.3,63.3L571.3,63.3L571.3,63.3z"/>
<ellipse transform="matrix(0.1373 -0.9905 0.9905 0.1373 397.8126 561.0998)" class="st1" cx="521" cy="52.2" rx="25.7" ry="25.7"/>
<linearGradient id="SVGID_5_" gradientUnits="userSpaceOnUse" x1="367.405" y1="2.94" x2="367.405" y2="512.49" gradientTransform="matrix(1 0 0 -1 0 726)">
	<stop  offset="0" style="stop-color:#808080;stop-opacity:0.25"/>
	<stop  offset="0.54" style="stop-color:#808080;stop-opacity:0.12"/>
	<stop  offset="1" style="stop-color:#808080;stop-opacity:0.1"/>
</linearGradient>
<polygon class="st7" points="0,213.5 0,239.2 0,723.1 734.8,723.1 734.8,239.2 734.8,213.5 "/>
<rect x="10.9" y="245.2" class="st1" width="716.1" height="468.8"/>
<rect x="10.9" y="222.9" class="st8" width="716.1" height="34.5"/>
<circle class="st9" cx="38.2" cy="239.6" r="8.4"/>
<circle class="st10" cx="61.2" cy="239.6" r="8.4"/>
<circle class="st11" cx="84.1" cy="239.6" r="8.4"/>
<rect x="301.8" y="370.5" class="st12" width="131.7" height="14.1"/>
<rect x="206.7" y="431.2" class="st13" width="144.2" height="14.1"/>
<rect x="384.4" y="431.2" class="st13" width="144.2" height="14.1"/>
<rect x="206.2" y="461.5" class="st13" width="321.9" height="14.1"/>
<rect x="206.2" y="491.8" class="st13" width="321.9" height="14.1"/>
<linearGradient id="SVGID_6_" gradientUnits="userSpaceOnUse" x1="367.145" y1="143.26" x2="367.145" y2="169.39" gradientTransform="matrix(1 0 0 -1 0 726)">
	<stop  offset="0" style="stop-color:#808080;stop-opacity:0.25"/>
	<stop  offset="0.54" style="stop-color:#808080;stop-opacity:0.12"/>
	<stop  offset="1" style="stop-color:#808080;stop-opacity:0.1"/>
</linearGradient>
<rect x="300.3" y="556.6" class="st14" width="133.8" height="26.1"/>
<rect x="301.3" y="559" class="st3" width="131.7" height="21.4"/>
</svg>
